<svg xmlns="http://www.w3.org/2000/svg" viewBox="0 0 512 512">
  <defs>
    <linearGradient id="bg" x1="0" y1="0" x2="1" y2="1">
      <stop offset="0" stop-color="#322865"/>
      <stop offset="1" stop-color="#140f2b"/>
    </linearGradient>
    <radialGradient id="glow" cx="0.5" cy="0.4" r="0.6">
      <stop offset="0" stop-color="#ffb259" stop-opacity="0.4"/>
      <stop offset="1" stop-color="#ffb259" stop-opacity="0"/>
    </radialGradient>
    <filter id="soft" x="-30%" y="-30%" width="160%" height="160%">
      <feDropShadow dx="0" dy="0" stdDeviation="14" flood-color="#cfc6ff" flood-opacity="0.7"/>
    </filter>
  </defs>
  <rect width="512" height="512" fill="url(#bg)"/>
  <rect width="512" height="512" fill="url(#glow)"/>
  <g transform="translate(141,118) scale(1.15)" filter="url(#soft)">
    <path d="M35,200 L35,95 A65,65 0 0 1 165,95 L165,200
             Q152,219 139,200 Q126,181 113,200 Q100,219 87,200
             Q74,181 61,200 Q48,219 35,200 Z" fill="#f5f2ff"/>
    <ellipse cx="79" cy="106" rx="13" ry="17" fill="#2a2350"/>
    <ellipse cx="121" cy="106" rx="13" ry="17" fill="#2a2350"/>
    <circle cx="74" cy="100" r="4" fill="#fff"/>
    <circle cx="116" cy="100" r="4" fill="#fff"/>
    <circle cx="60" cy="138" r="11" fill="#ff8a78" opacity="0.55"/>
    <circle cx="140" cy="138" r="11" fill="#ff8a78" opacity="0.55"/>
    <path d="M86,138 Q100,151 114,138" stroke="#2a2350" stroke-width="5"
          stroke-linecap="round" fill="none"/>
  </g>
</svg>
